<svg xmlns="http://www.w3.org/2000/svg" viewBox="0 0 354.43 354.43"><defs><style>.cls-1{fill:none;stroke:#ffd09c;stroke-linecap:round;stroke-linejoin:round;stroke-width:10px;}</style></defs><g id="Layer_2" data-name="Layer 2"><g id="assets"><polygon class="cls-1" points="220.49 102.26 177.22 102.26 133.94 102.26 90.67 177.22 133.94 252.17 220.49 252.17 263.77 177.22 220.49 102.26"/><polygon class="cls-1" points="156.82 5 197.62 5 206.42 53.35 244.11 68.95 284.57 41.02 313.42 69.86 285.45 110.28 301.07 147.97 349.43 156.82 349.43 197.62 301.08 206.42 285.48 244.11 313.42 284.57 284.57 313.42 244.16 285.45 206.47 301.07 197.62 349.43 156.82 349.43 148.01 301.08 110.32 285.48 69.86 313.42 41.02 284.57 68.98 244.16 53.36 206.47 5 197.62 5 156.82 53.35 148.01 68.95 110.32 41.02 69.86 69.86 41.02 110.28 68.98 147.97 53.36 156.82 5"/></g></g></svg>