<svg xmlns="http://www.w3.org/2000/svg" viewBox="0 0 570.8 231.03"><defs><style>.cls-1{fill:#ff8a60;}</style></defs><g id="Layer_2" data-name="Layer 2"><g id="assets"><rect class="cls-1" x="68.14" width="95.41" height="231.03"/><polygon class="cls-1" points="87.92 0 0 87.92 0 0 87.92 0"/><polygon class="cls-1" points="281.52 231.03 148.13 0 287.1 0 304.18 29.59 351 110.68 281.52 231.03"/><path class="cls-1" d="M395.08,11.44,334.8,115.85l-36-54.12,29-50.29h67.2M414.91,0H321.27L285.38,62.16l50.11,75.4L414.91,0Z"/><polygon class="cls-1" points="437.41 0 570.8 231.03 431.83 231.03 414.75 201.44 367.93 120.35 437.41 0"/><path class="cls-1" d="M384.12,115.18l36,54.12-29,50.29h-67.2l60.27-104.41m-.68-21.7L304,231h93.64l35.89-62.15-50.11-75.4Z"/></g></g></svg>