<svg xmlns="http://www.w3.org/2000/svg" viewBox="0 0 2899.1 1407.59"><defs><style>.cls-1{fill:none;stroke:#f5996c;stroke-linecap:round;stroke-linejoin:round;stroke-width:10px;opacity:0.1;}</style></defs><g id="Layer_2" data-name="Layer 2"><g id="background-grid"><rect class="cls-1" x="5" y="5" width="87.55" height="87.55"/><rect class="cls-1" x="92.55" y="5" width="87.55" height="87.55"/><rect class="cls-1" x="180.1" y="5" width="87.55" height="87.55"/><rect class="cls-1" x="267.65" y="5" width="87.55" height="87.55"/><rect class="cls-1" x="355.19" y="5" width="87.55" height="87.55"/><rect class="cls-1" x="442.74" y="5" width="87.55" height="87.55"/><rect class="cls-1" x="530.29" y="5" width="87.55" height="87.55"/><rect class="cls-1" x="617.84" y="5" width="87.55" height="87.55"/><rect class="cls-1" x="705.39" y="5" width="87.55" height="87.55"/><rect class="cls-1" x="792.94" y="5" width="87.55" height="87.55"/><rect class="cls-1" x="880.49" y="5" width="87.55" height="87.55"/><rect class="cls-1" x="968.03" y="5" width="87.55" height="87.55"/><rect class="cls-1" x="1055.58" y="5" width="87.55" height="87.55"/><rect class="cls-1" x="1143.13" y="5" width="87.55" height="87.55"/><rect class="cls-1" x="1230.68" y="5" width="87.55" height="87.55"/><rect class="cls-1" x="1318.23" y="5" width="87.55" height="87.55"/><rect class="cls-1" x="1405.78" y="5" width="87.55" height="87.55"/><rect class="cls-1" x="1493.32" y="5" width="87.55" height="87.55"/><rect class="cls-1" x="1580.87" y="5" width="87.55" height="87.55"/><rect class="cls-1" x="1668.42" y="5" width="87.55" height="87.55"/><rect class="cls-1" x="1755.97" y="5" width="87.55" height="87.55"/><rect class="cls-1" x="1843.52" y="5" width="87.55" height="87.55"/><rect class="cls-1" x="1931.07" y="5" width="87.55" height="87.55"/><rect class="cls-1" x="2018.62" y="5" width="87.55" height="87.55"/><rect class="cls-1" x="2106.16" y="5" width="87.55" height="87.55"/><rect class="cls-1" x="2193.71" y="5" width="87.55" height="87.55"/><rect class="cls-1" x="2281.26" y="5" width="87.55" height="87.55"/><rect class="cls-1" x="2368.81" y="5" width="87.55" height="87.55"/><rect class="cls-1" x="2456.36" y="5" width="87.55" height="87.55"/><rect class="cls-1" x="2543.91" y="5" width="87.55" height="87.55"/><rect class="cls-1" x="2631.46" y="5" width="87.55" height="87.55"/><rect class="cls-1" x="2719" y="5" width="87.55" height="87.55"/><rect class="cls-1" x="2806.55" y="5" width="87.55" height="87.55"/><rect class="cls-1" x="5" y="91.45" width="87.55" height="87.55"/><rect class="cls-1" x="92.55" y="91.45" width="87.55" height="87.55"/><rect class="cls-1" x="180.1" y="91.45" width="87.55" height="87.55"/><rect class="cls-1" x="267.65" y="91.45" width="87.55" height="87.55"/><rect class="cls-1" x="355.19" y="91.45" width="87.55" height="87.55"/><rect class="cls-1" x="442.74" y="91.45" width="87.55" height="87.55"/><rect class="cls-1" x="530.29" y="91.45" width="87.55" height="87.55"/><rect class="cls-1" x="617.84" y="91.45" width="87.55" height="87.55"/><rect class="cls-1" x="705.39" y="91.45" width="87.55" height="87.55"/><rect class="cls-1" x="792.94" y="91.45" width="87.55" height="87.55"/><rect class="cls-1" x="880.49" y="91.45" width="87.55" height="87.55"/><rect class="cls-1" x="968.03" y="91.45" width="87.55" height="87.55"/><rect class="cls-1" x="1055.58" y="91.45" width="87.55" height="87.55"/><rect class="cls-1" x="1143.13" y="91.45" width="87.55" height="87.55"/><rect class="cls-1" x="1230.68" y="91.45" width="87.55" height="87.55"/><rect class="cls-1" x="1318.23" y="91.45" width="87.55" height="87.55"/><rect class="cls-1" x="1405.78" y="91.45" width="87.55" height="87.55"/><rect class="cls-1" x="1493.32" y="91.45" width="87.55" height="87.55"/><rect class="cls-1" x="1580.87" y="91.45" width="87.55" height="87.55"/><rect class="cls-1" x="1668.42" y="91.45" width="87.55" height="87.55"/><rect class="cls-1" x="1755.97" y="91.45" width="87.55" height="87.55"/><rect class="cls-1" x="1843.52" y="91.45" width="87.55" height="87.55"/><rect class="cls-1" x="1931.07" y="91.45" width="87.55" height="87.55"/><rect class="cls-1" x="2018.62" y="91.45" width="87.55" height="87.55"/><rect class="cls-1" x="2106.16" y="91.45" width="87.55" height="87.55"/><rect class="cls-1" x="2193.71" y="91.45" width="87.55" height="87.55"/><rect class="cls-1" x="2281.26" y="91.45" width="87.55" height="87.55"/><rect class="cls-1" x="2368.81" y="91.45" width="87.55" height="87.55"/><rect class="cls-1" x="2456.36" y="91.45" width="87.55" height="87.55"/><rect class="cls-1" x="2543.91" y="91.45" width="87.55" height="87.55"/><rect class="cls-1" x="2631.46" y="91.45" width="87.55" height="87.55"/><rect class="cls-1" x="2719" y="91.45" width="87.55" height="87.55"/><rect class="cls-1" x="2806.55" y="91.45" width="87.55" height="87.55"/><rect class="cls-1" x="5" y="180.12" width="87.55" height="87.55"/><rect class="cls-1" x="92.55" y="180.12" width="87.55" height="87.55"/><rect class="cls-1" x="180.1" y="180.12" width="87.55" height="87.55"/><rect class="cls-1" x="267.65" y="180.12" width="87.55" height="87.55"/><rect class="cls-1" x="355.19" y="180.12" width="87.55" height="87.55"/><rect class="cls-1" x="442.74" y="180.12" width="87.55" height="87.55"/><rect class="cls-1" x="530.29" y="180.12" width="87.55" height="87.55"/><rect class="cls-1" x="617.84" y="180.12" width="87.55" height="87.55"/><rect class="cls-1" x="705.39" y="180.12" width="87.55" height="87.55"/><rect class="cls-1" x="792.94" y="180.12" width="87.55" height="87.55"/><rect class="cls-1" x="880.49" y="180.12" width="87.55" height="87.55"/><rect class="cls-1" x="968.03" y="180.12" width="87.55" height="87.55"/><rect class="cls-1" x="1055.58" y="180.12" width="87.55" height="87.55"/><rect class="cls-1" x="1143.13" y="180.12" width="87.55" height="87.55"/><rect class="cls-1" x="1230.68" y="180.12" width="87.55" height="87.55"/><rect class="cls-1" x="1318.23" y="180.12" width="87.55" height="87.55"/><rect class="cls-1" x="1405.78" y="180.12" width="87.55" height="87.55"/><rect class="cls-1" x="1493.32" y="180.12" width="87.55" height="87.55"/><rect class="cls-1" x="1580.87" y="180.12" width="87.55" height="87.55"/><rect class="cls-1" x="1668.42" y="180.12" width="87.55" height="87.55"/><rect class="cls-1" x="1755.97" y="180.12" width="87.55" height="87.55"/><rect class="cls-1" x="1843.52" y="180.12" width="87.55" height="87.55"/><rect class="cls-1" x="1931.07" y="180.12" width="87.55" height="87.55"/><rect class="cls-1" x="2018.62" y="180.12" width="87.55" height="87.55"/><rect class="cls-1" x="2106.16" y="180.12" width="87.55" height="87.55"/><rect class="cls-1" x="2193.71" y="180.12" width="87.55" height="87.55"/><rect class="cls-1" x="2281.26" y="180.12" width="87.55" height="87.55"/><rect class="cls-1" x="2368.81" y="180.12" width="87.55" height="87.55"/><rect class="cls-1" x="2456.36" y="180.12" width="87.55" height="87.55"/><rect class="cls-1" x="2543.91" y="180.12" width="87.55" height="87.55"/><rect class="cls-1" x="2631.46" y="180.12" width="87.55" height="87.55"/><rect class="cls-1" x="2719" y="180.12" width="87.55" height="87.55"/><rect class="cls-1" x="2806.55" y="180.12" width="87.55" height="87.55"/><rect class="cls-1" x="5" y="266.57" width="87.55" height="87.55"/><rect class="cls-1" x="92.55" y="266.57" width="87.55" height="87.55"/><rect class="cls-1" x="180.1" y="266.57" width="87.55" height="87.55"/><rect class="cls-1" x="267.65" y="266.57" width="87.55" height="87.55"/><rect class="cls-1" x="355.19" y="266.57" width="87.55" height="87.55"/><rect class="cls-1" x="442.74" y="266.57" width="87.55" height="87.55"/><rect class="cls-1" x="530.29" y="266.57" width="87.55" height="87.55"/><rect class="cls-1" x="617.84" y="266.57" width="87.55" height="87.55"/><rect class="cls-1" x="705.39" y="266.57" width="87.55" height="87.55"/><rect class="cls-1" x="792.94" y="266.57" width="87.55" height="87.55"/><rect class="cls-1" x="880.49" y="266.57" width="87.55" height="87.55"/><rect class="cls-1" x="968.03" y="266.57" width="87.55" height="87.55"/><rect class="cls-1" x="1055.58" y="266.57" width="87.55" height="87.55"/><rect class="cls-1" x="1143.13" y="266.57" width="87.55" height="87.55"/><rect class="cls-1" x="1230.68" y="266.57" width="87.55" height="87.55"/><rect class="cls-1" x="1318.23" y="266.57" width="87.55" height="87.55"/><rect class="cls-1" x="1405.78" y="266.57" width="87.55" height="87.55"/><rect class="cls-1" x="1493.32" y="266.57" width="87.55" height="87.55"/><rect class="cls-1" x="1580.87" y="266.57" width="87.55" height="87.55"/><rect class="cls-1" x="1668.42" y="266.57" width="87.55" height="87.55"/><rect class="cls-1" x="1755.97" y="266.57" width="87.55" height="87.55"/><rect class="cls-1" x="1843.52" y="266.57" width="87.55" height="87.55"/><rect class="cls-1" x="1931.07" y="266.57" width="87.55" height="87.55"/><rect class="cls-1" x="2018.62" y="266.57" width="87.55" height="87.55"/><rect class="cls-1" x="2106.16" y="266.57" width="87.55" height="87.55"/><rect class="cls-1" x="2193.71" y="266.57" width="87.55" height="87.55"/><rect class="cls-1" x="2281.26" y="266.57" width="87.55" height="87.55"/><rect class="cls-1" x="2368.81" y="266.57" width="87.55" height="87.55"/><rect class="cls-1" x="2456.36" y="266.57" width="87.55" height="87.55"/><rect class="cls-1" x="2543.91" y="266.57" width="87.55" height="87.55"/><rect class="cls-1" x="2631.46" y="266.57" width="87.55" height="87.55"/><rect class="cls-1" x="2719" y="266.57" width="87.55" height="87.55"/><rect class="cls-1" x="2806.55" y="266.57" width="87.55" height="87.55"/><rect class="cls-1" x="5" y="355.23" width="87.55" height="87.55"/><rect class="cls-1" x="92.55" y="355.23" width="87.55" height="87.55"/><rect class="cls-1" x="180.1" y="355.23" width="87.55" height="87.55"/><rect class="cls-1" x="267.65" y="355.23" width="87.55" height="87.55"/><rect class="cls-1" x="355.19" y="355.23" width="87.55" height="87.55"/><rect class="cls-1" x="442.74" y="355.23" width="87.55" height="87.55"/><rect class="cls-1" x="530.29" y="355.23" width="87.55" height="87.55"/><rect class="cls-1" x="617.84" y="355.23" width="87.55" height="87.55"/><rect class="cls-1" x="705.39" y="355.23" width="87.55" height="87.55"/><rect class="cls-1" x="792.94" y="355.23" width="87.55" height="87.55"/><rect class="cls-1" x="880.49" y="355.23" width="87.55" height="87.55"/><rect class="cls-1" x="968.03" y="355.23" width="87.55" height="87.55"/><rect class="cls-1" x="1055.58" y="355.23" width="87.55" height="87.55"/><rect class="cls-1" x="1143.13" y="355.23" width="87.55" height="87.55"/><rect class="cls-1" x="1230.68" y="355.23" width="87.55" height="87.55"/><rect class="cls-1" x="1318.23" y="355.23" width="87.55" height="87.55"/><rect class="cls-1" x="1405.78" y="355.23" width="87.55" height="87.55"/><rect class="cls-1" x="1493.32" y="355.23" width="87.55" height="87.55"/><rect class="cls-1" x="1580.87" y="355.23" width="87.55" height="87.55"/><rect class="cls-1" x="1668.42" y="355.23" width="87.55" height="87.55"/><rect class="cls-1" x="1755.97" y="355.23" width="87.55" height="87.55"/><rect class="cls-1" x="1843.52" y="355.23" width="87.55" height="87.55"/><rect class="cls-1" x="1931.07" y="355.23" width="87.55" height="87.55"/><rect class="cls-1" x="2018.62" y="355.23" width="87.55" height="87.55"/><rect class="cls-1" x="2106.16" y="355.23" width="87.55" height="87.55"/><rect class="cls-1" x="2193.71" y="355.23" width="87.55" height="87.55"/><rect class="cls-1" x="2281.26" y="355.23" width="87.55" height="87.55"/><rect class="cls-1" x="2368.81" y="355.23" width="87.55" height="87.55"/><rect class="cls-1" x="2456.36" y="355.23" width="87.55" height="87.55"/><rect class="cls-1" x="2543.91" y="355.23" width="87.55" height="87.55"/><rect class="cls-1" x="2631.46" y="355.23" width="87.55" height="87.55"/><rect class="cls-1" x="2719" y="355.23" width="87.55" height="87.55"/><rect class="cls-1" x="2806.55" y="355.23" width="87.55" height="87.55"/><rect class="cls-1" x="5" y="441.68" width="87.55" height="87.55"/><rect class="cls-1" x="92.55" y="441.68" width="87.55" height="87.55"/><rect class="cls-1" x="180.1" y="441.68" width="87.55" height="87.55"/><rect class="cls-1" x="267.65" y="441.68" width="87.55" height="87.55"/><rect class="cls-1" x="355.19" y="441.68" width="87.55" height="87.55"/><rect class="cls-1" x="442.74" y="441.68" width="87.55" height="87.55"/><rect class="cls-1" x="530.29" y="441.68" width="87.55" height="87.55"/><rect class="cls-1" x="617.84" y="441.68" width="87.55" height="87.55"/><rect class="cls-1" x="705.39" y="441.68" width="87.55" height="87.55"/><rect class="cls-1" x="792.94" y="441.68" width="87.55" height="87.55"/><rect class="cls-1" x="880.49" y="441.68" width="87.55" height="87.55"/><rect class="cls-1" x="968.03" y="441.68" width="87.55" height="87.55"/><rect class="cls-1" x="1055.58" y="441.68" width="87.55" height="87.55"/><rect class="cls-1" x="1143.13" y="441.68" width="87.55" height="87.55"/><rect class="cls-1" x="1230.68" y="441.68" width="87.55" height="87.55"/><rect class="cls-1" x="1318.23" y="441.68" width="87.55" height="87.55"/><rect class="cls-1" x="1405.78" y="441.68" width="87.55" height="87.55"/><rect class="cls-1" x="1493.32" y="441.68" width="87.55" height="87.55"/><rect class="cls-1" x="1580.87" y="441.68" width="87.55" height="87.55"/><rect class="cls-1" x="1668.42" y="441.68" width="87.55" height="87.55"/><rect class="cls-1" x="1755.97" y="441.68" width="87.55" height="87.55"/><rect class="cls-1" x="1843.52" y="441.68" width="87.55" height="87.55"/><rect class="cls-1" x="1931.07" y="441.68" width="87.55" height="87.55"/><rect class="cls-1" x="2018.62" y="441.68" width="87.55" height="87.55"/><rect class="cls-1" x="2106.16" y="441.68" width="87.55" height="87.55"/><rect class="cls-1" x="2193.71" y="441.68" width="87.55" height="87.55"/><rect class="cls-1" x="2281.26" y="441.68" width="87.55" height="87.55"/><rect class="cls-1" x="2368.81" y="441.68" width="87.55" height="87.55"/><rect class="cls-1" x="2456.36" y="441.68" width="87.55" height="87.55"/><rect class="cls-1" x="2543.91" y="441.68" width="87.55" height="87.55"/><rect class="cls-1" x="2631.46" y="441.68" width="87.55" height="87.55"/><rect class="cls-1" x="2719" y="441.68" width="87.55" height="87.55"/><rect class="cls-1" x="2806.55" y="441.68" width="87.55" height="87.55"/><rect class="cls-1" x="5" y="530.35" width="87.55" height="87.55"/><rect class="cls-1" x="92.55" y="530.35" width="87.55" height="87.55"/><rect class="cls-1" x="180.1" y="530.35" width="87.55" height="87.55"/><rect class="cls-1" x="267.65" y="530.35" width="87.55" height="87.55"/><rect class="cls-1" x="355.19" y="530.35" width="87.55" height="87.55"/><rect class="cls-1" x="442.74" y="530.35" width="87.55" height="87.55"/><rect class="cls-1" x="530.29" y="530.35" width="87.55" height="87.55"/><rect class="cls-1" x="617.84" y="530.35" width="87.55" height="87.55"/><rect class="cls-1" x="705.39" y="530.35" width="87.55" height="87.55"/><rect class="cls-1" x="792.94" y="530.35" width="87.55" height="87.55"/><rect class="cls-1" x="880.49" y="530.35" width="87.55" height="87.55"/><rect class="cls-1" x="968.03" y="530.35" width="87.55" height="87.55"/><rect class="cls-1" x="1055.58" y="530.35" width="87.55" height="87.55"/><rect class="cls-1" x="1143.13" y="530.35" width="87.55" height="87.55"/><rect class="cls-1" x="1230.68" y="530.35" width="87.55" height="87.55"/><rect class="cls-1" x="1318.23" y="530.35" width="87.55" height="87.55"/><rect class="cls-1" x="1405.78" y="530.35" width="87.55" height="87.55"/><rect class="cls-1" x="1493.32" y="530.35" width="87.55" height="87.55"/><rect class="cls-1" x="1580.87" y="530.35" width="87.55" height="87.55"/><rect class="cls-1" x="1668.42" y="530.35" width="87.55" height="87.55"/><rect class="cls-1" x="1755.97" y="530.35" width="87.55" height="87.55"/><rect class="cls-1" x="1843.52" y="530.35" width="87.55" height="87.55"/><rect class="cls-1" x="1931.07" y="530.35" width="87.55" height="87.55"/><rect class="cls-1" x="2018.62" y="530.35" width="87.55" height="87.55"/><rect class="cls-1" x="2106.16" y="530.35" width="87.55" height="87.55"/><rect class="cls-1" x="2193.71" y="530.35" width="87.55" height="87.55"/><rect class="cls-1" x="2281.26" y="530.35" width="87.55" height="87.55"/><rect class="cls-1" x="2368.81" y="530.35" width="87.55" height="87.55"/><rect class="cls-1" x="2456.36" y="530.35" width="87.55" height="87.55"/><rect class="cls-1" x="2543.91" y="530.35" width="87.55" height="87.55"/><rect class="cls-1" x="2631.46" y="530.35" width="87.55" height="87.55"/><rect class="cls-1" x="2719" y="530.35" width="87.55" height="87.55"/><rect class="cls-1" x="2806.55" y="530.35" width="87.55" height="87.55"/><rect class="cls-1" x="5" y="616.8" width="87.55" height="87.55"/><rect class="cls-1" x="92.55" y="616.8" width="87.55" height="87.55"/><rect class="cls-1" x="180.1" y="616.8" width="87.55" height="87.55"/><rect class="cls-1" x="267.65" y="616.8" width="87.55" height="87.55"/><rect class="cls-1" x="355.19" y="616.8" width="87.55" height="87.55"/><rect class="cls-1" x="442.74" y="616.8" width="87.55" height="87.55"/><rect class="cls-1" x="530.29" y="616.8" width="87.55" height="87.55"/><rect class="cls-1" x="617.84" y="616.8" width="87.55" height="87.55"/><rect class="cls-1" x="705.39" y="616.8" width="87.55" height="87.55"/><rect class="cls-1" x="792.94" y="616.8" width="87.55" height="87.55"/><rect class="cls-1" x="880.49" y="616.8" width="87.55" height="87.55"/><rect class="cls-1" x="968.03" y="616.8" width="87.55" height="87.55"/><rect class="cls-1" x="1055.58" y="616.8" width="87.55" height="87.55"/><rect class="cls-1" x="1143.13" y="616.8" width="87.55" height="87.55"/><rect class="cls-1" x="1230.68" y="616.8" width="87.55" height="87.55"/><rect class="cls-1" x="1318.23" y="616.8" width="87.55" height="87.55"/><rect class="cls-1" x="1405.78" y="616.8" width="87.55" height="87.55"/><rect class="cls-1" x="1493.32" y="616.8" width="87.55" height="87.55"/><rect class="cls-1" x="1580.87" y="616.8" width="87.55" height="87.55"/><rect class="cls-1" x="1668.42" y="616.8" width="87.55" height="87.55"/><rect class="cls-1" x="1755.97" y="616.8" width="87.55" height="87.55"/><rect class="cls-1" x="1843.52" y="616.8" width="87.55" height="87.55"/><rect class="cls-1" x="1931.07" y="616.8" width="87.55" height="87.55"/><rect class="cls-1" x="2018.62" y="616.8" width="87.55" height="87.55"/><rect class="cls-1" x="2106.16" y="616.8" width="87.55" height="87.55"/><rect class="cls-1" x="2193.71" y="616.8" width="87.55" height="87.55"/><rect class="cls-1" x="2281.26" y="616.8" width="87.55" height="87.55"/><rect class="cls-1" x="2368.81" y="616.8" width="87.55" height="87.55"/><rect class="cls-1" x="2456.36" y="616.8" width="87.55" height="87.55"/><rect class="cls-1" x="2543.91" y="616.8" width="87.55" height="87.55"/><rect class="cls-1" x="2631.46" y="616.8" width="87.55" height="87.55"/><rect class="cls-1" x="2719" y="616.8" width="87.55" height="87.55"/><rect class="cls-1" x="2806.55" y="616.8" width="87.55" height="87.55"/><rect class="cls-1" x="5" y="703.25" width="87.55" height="87.55"/><rect class="cls-1" x="92.55" y="703.25" width="87.55" height="87.55"/><rect class="cls-1" x="180.1" y="703.25" width="87.55" height="87.55"/><rect class="cls-1" x="267.65" y="703.25" width="87.55" height="87.55"/><rect class="cls-1" x="355.19" y="703.25" width="87.55" height="87.55"/><rect class="cls-1" x="442.74" y="703.25" width="87.55" height="87.55"/><rect class="cls-1" x="530.29" y="703.25" width="87.55" height="87.55"/><rect class="cls-1" x="617.84" y="703.25" width="87.55" height="87.55"/><rect class="cls-1" x="705.39" y="703.25" width="87.55" height="87.55"/><rect class="cls-1" x="792.94" y="703.25" width="87.55" height="87.55"/><rect class="cls-1" x="880.49" y="703.25" width="87.55" height="87.55"/><rect class="cls-1" x="968.03" y="703.25" width="87.55" height="87.55"/><rect class="cls-1" x="1055.58" y="703.25" width="87.55" height="87.55"/><rect class="cls-1" x="1143.13" y="703.25" width="87.55" height="87.55"/><rect class="cls-1" x="1230.68" y="703.25" width="87.55" height="87.55"/><rect class="cls-1" x="1318.23" y="703.25" width="87.55" height="87.55"/><rect class="cls-1" x="1405.78" y="703.25" width="87.55" height="87.55"/><rect class="cls-1" x="1493.32" y="703.25" width="87.55" height="87.55"/><rect class="cls-1" x="1580.87" y="703.25" width="87.55" height="87.55"/><rect class="cls-1" x="1668.42" y="703.25" width="87.55" height="87.55"/><rect class="cls-1" x="1755.97" y="703.25" width="87.55" height="87.55"/><rect class="cls-1" x="1843.52" y="703.25" width="87.55" height="87.55"/><rect class="cls-1" x="1931.07" y="703.25" width="87.55" height="87.55"/><rect class="cls-1" x="2018.62" y="703.25" width="87.55" height="87.55"/><rect class="cls-1" x="2106.16" y="703.25" width="87.55" height="87.55"/><rect class="cls-1" x="2193.71" y="703.25" width="87.55" height="87.55"/><rect class="cls-1" x="2281.26" y="703.25" width="87.55" height="87.55"/><rect class="cls-1" x="2368.81" y="703.25" width="87.55" height="87.55"/><rect class="cls-1" x="2456.36" y="703.25" width="87.55" height="87.55"/><rect class="cls-1" x="2543.91" y="703.25" width="87.55" height="87.55"/><rect class="cls-1" x="2631.46" y="703.25" width="87.55" height="87.55"/><rect class="cls-1" x="2719" y="703.25" width="87.55" height="87.55"/><rect class="cls-1" x="2806.55" y="703.25" width="87.55" height="87.55"/><rect class="cls-1" x="5" y="789.7" width="87.55" height="87.55"/><rect class="cls-1" x="92.55" y="789.7" width="87.55" height="87.55"/><rect class="cls-1" x="180.1" y="789.7" width="87.55" height="87.55"/><rect class="cls-1" x="267.65" y="789.7" width="87.55" height="87.55"/><rect class="cls-1" x="355.19" y="789.7" width="87.55" height="87.55"/><rect class="cls-1" x="442.74" y="789.7" width="87.55" height="87.55"/><rect class="cls-1" x="530.29" y="789.7" width="87.55" height="87.55"/><rect class="cls-1" x="617.84" y="789.7" width="87.55" height="87.55"/><rect class="cls-1" x="705.39" y="789.7" width="87.55" height="87.55"/><rect class="cls-1" x="792.94" y="789.7" width="87.55" height="87.55"/><rect class="cls-1" x="880.49" y="789.7" width="87.55" height="87.55"/><rect class="cls-1" x="968.03" y="789.7" width="87.55" height="87.55"/><rect class="cls-1" x="1055.58" y="789.7" width="87.55" height="87.55"/><rect class="cls-1" x="1143.13" y="789.7" width="87.55" height="87.55"/><rect class="cls-1" x="1230.68" y="789.7" width="87.55" height="87.55"/><rect class="cls-1" x="1318.23" y="789.7" width="87.55" height="87.55"/><rect class="cls-1" x="1405.78" y="789.7" width="87.55" height="87.55"/><rect class="cls-1" x="1493.32" y="789.7" width="87.55" height="87.55"/><rect class="cls-1" x="1580.87" y="789.7" width="87.55" height="87.55"/><rect class="cls-1" x="1668.42" y="789.7" width="87.55" height="87.55"/><rect class="cls-1" x="1755.97" y="789.7" width="87.55" height="87.55"/><rect class="cls-1" x="1843.52" y="789.7" width="87.55" height="87.55"/><rect class="cls-1" x="1931.07" y="789.7" width="87.55" height="87.55"/><rect class="cls-1" x="2018.62" y="789.7" width="87.55" height="87.55"/><rect class="cls-1" x="2106.16" y="789.7" width="87.55" height="87.55"/><rect class="cls-1" x="2193.71" y="789.7" width="87.55" height="87.55"/><rect class="cls-1" x="2281.26" y="789.7" width="87.55" height="87.55"/><rect class="cls-1" x="2368.81" y="789.7" width="87.55" height="87.55"/><rect class="cls-1" x="2456.36" y="789.7" width="87.55" height="87.55"/><rect class="cls-1" x="2543.91" y="789.7" width="87.55" height="87.55"/><rect class="cls-1" x="2631.46" y="789.7" width="87.55" height="87.55"/><rect class="cls-1" x="2719" y="789.7" width="87.55" height="87.55"/><rect class="cls-1" x="2806.55" y="789.7" width="87.55" height="87.55"/><rect class="cls-1" x="5" y="878.36" width="87.55" height="87.55"/><rect class="cls-1" x="92.55" y="878.36" width="87.55" height="87.55"/><rect class="cls-1" x="180.1" y="878.36" width="87.55" height="87.55"/><rect class="cls-1" x="267.65" y="878.36" width="87.55" height="87.55"/><rect class="cls-1" x="355.19" y="878.36" width="87.55" height="87.55"/><rect class="cls-1" x="442.74" y="878.36" width="87.55" height="87.55"/><rect class="cls-1" x="530.29" y="878.36" width="87.55" height="87.55"/><rect class="cls-1" x="617.84" y="878.36" width="87.55" height="87.55"/><rect class="cls-1" x="705.39" y="878.36" width="87.55" height="87.55"/><rect class="cls-1" x="792.94" y="878.36" width="87.55" height="87.55"/><rect class="cls-1" x="880.49" y="878.36" width="87.55" height="87.55"/><rect class="cls-1" x="968.03" y="878.36" width="87.55" height="87.55"/><rect class="cls-1" x="1055.58" y="878.36" width="87.55" height="87.55"/><rect class="cls-1" x="1143.13" y="878.36" width="87.55" height="87.55"/><rect class="cls-1" x="1230.68" y="878.36" width="87.55" height="87.55"/><rect class="cls-1" x="1318.23" y="878.36" width="87.55" height="87.55"/><rect class="cls-1" x="1405.78" y="878.36" width="87.55" height="87.55"/><rect class="cls-1" x="1493.32" y="878.36" width="87.55" height="87.55"/><rect class="cls-1" x="1580.87" y="878.36" width="87.55" height="87.55"/><rect class="cls-1" x="1668.42" y="878.36" width="87.55" height="87.55"/><rect class="cls-1" x="1755.97" y="878.36" width="87.55" height="87.55"/><rect class="cls-1" x="1843.52" y="878.36" width="87.55" height="87.55"/><rect class="cls-1" x="1931.07" y="878.36" width="87.55" height="87.55"/><rect class="cls-1" x="2018.62" y="878.36" width="87.55" height="87.55"/><rect class="cls-1" x="2106.16" y="878.36" width="87.55" height="87.55"/><rect class="cls-1" x="2193.71" y="878.36" width="87.55" height="87.55"/><rect class="cls-1" x="2281.26" y="878.36" width="87.55" height="87.55"/><rect class="cls-1" x="2368.81" y="878.36" width="87.55" height="87.55"/><rect class="cls-1" x="2456.36" y="878.36" width="87.55" height="87.55"/><rect class="cls-1" x="2543.91" y="878.36" width="87.55" height="87.55"/><rect class="cls-1" x="2631.46" y="878.36" width="87.55" height="87.55"/><rect class="cls-1" x="2719" y="878.36" width="87.55" height="87.55"/><rect class="cls-1" x="2806.55" y="878.36" width="87.55" height="87.55"/><rect class="cls-1" x="5" y="964.81" width="87.55" height="87.55"/><rect class="cls-1" x="92.55" y="964.81" width="87.55" height="87.55"/><rect class="cls-1" x="180.1" y="964.81" width="87.55" height="87.55"/><rect class="cls-1" x="267.65" y="964.81" width="87.55" height="87.55"/><rect class="cls-1" x="355.19" y="964.81" width="87.55" height="87.55"/><rect class="cls-1" x="442.74" y="964.81" width="87.55" height="87.55"/><rect class="cls-1" x="530.29" y="964.81" width="87.55" height="87.55"/><rect class="cls-1" x="617.84" y="964.81" width="87.55" height="87.55"/><rect class="cls-1" x="705.39" y="964.81" width="87.55" height="87.55"/><rect class="cls-1" x="792.94" y="964.81" width="87.55" height="87.55"/><rect class="cls-1" x="880.49" y="964.81" width="87.55" height="87.55"/><rect class="cls-1" x="968.03" y="964.81" width="87.55" height="87.55"/><rect class="cls-1" x="1055.58" y="964.81" width="87.55" height="87.55"/><rect class="cls-1" x="1143.13" y="964.81" width="87.55" height="87.55"/><rect class="cls-1" x="1230.68" y="964.81" width="87.55" height="87.55"/><rect class="cls-1" x="1318.23" y="964.81" width="87.55" height="87.55"/><rect class="cls-1" x="1405.78" y="964.81" width="87.55" height="87.55"/><rect class="cls-1" x="1493.32" y="964.81" width="87.55" height="87.55"/><rect class="cls-1" x="1580.87" y="964.81" width="87.55" height="87.55"/><rect class="cls-1" x="1668.42" y="964.81" width="87.55" height="87.55"/><rect class="cls-1" x="1755.97" y="964.81" width="87.55" height="87.55"/><rect class="cls-1" x="1843.52" y="964.81" width="87.55" height="87.55"/><rect class="cls-1" x="1931.07" y="964.81" width="87.55" height="87.55"/><rect class="cls-1" x="2018.62" y="964.81" width="87.55" height="87.55"/><rect class="cls-1" x="2106.16" y="964.81" width="87.55" height="87.55"/><rect class="cls-1" x="2193.71" y="964.81" width="87.55" height="87.55"/><rect class="cls-1" x="2281.26" y="964.81" width="87.55" height="87.55"/><rect class="cls-1" x="2368.81" y="964.81" width="87.55" height="87.55"/><rect class="cls-1" x="2456.36" y="964.81" width="87.55" height="87.55"/><rect class="cls-1" x="2543.91" y="964.81" width="87.55" height="87.55"/><rect class="cls-1" x="2631.46" y="964.81" width="87.55" height="87.55"/><rect class="cls-1" x="2719" y="964.81" width="87.55" height="87.55"/><rect class="cls-1" x="2806.55" y="964.81" width="87.55" height="87.55"/><rect class="cls-1" x="5" y="1053.48" width="87.55" height="87.55"/><rect class="cls-1" x="92.55" y="1053.48" width="87.55" height="87.55"/><rect class="cls-1" x="180.1" y="1053.48" width="87.55" height="87.55"/><rect class="cls-1" x="267.65" y="1053.48" width="87.55" height="87.55"/><rect class="cls-1" x="355.19" y="1053.48" width="87.55" height="87.55"/><rect class="cls-1" x="442.74" y="1053.48" width="87.55" height="87.55"/><rect class="cls-1" x="530.29" y="1053.48" width="87.55" height="87.55"/><rect class="cls-1" x="617.84" y="1053.48" width="87.55" height="87.55"/><rect class="cls-1" x="705.39" y="1053.48" width="87.55" height="87.55"/><rect class="cls-1" x="792.94" y="1053.48" width="87.55" height="87.55"/><rect class="cls-1" x="880.49" y="1053.48" width="87.55" height="87.55"/><rect class="cls-1" x="968.03" y="1053.48" width="87.55" height="87.55"/><rect class="cls-1" x="1055.58" y="1053.48" width="87.55" height="87.55"/><rect class="cls-1" x="1143.13" y="1053.48" width="87.55" height="87.55"/><rect class="cls-1" x="1230.68" y="1053.48" width="87.55" height="87.55"/><rect class="cls-1" x="1318.23" y="1053.48" width="87.55" height="87.55"/><rect class="cls-1" x="1405.78" y="1053.48" width="87.55" height="87.55"/><rect class="cls-1" x="1493.32" y="1053.48" width="87.55" height="87.55"/><rect class="cls-1" x="1580.87" y="1053.48" width="87.55" height="87.55"/><rect class="cls-1" x="1668.42" y="1053.48" width="87.55" height="87.55"/><rect class="cls-1" x="1755.97" y="1053.48" width="87.55" height="87.55"/><rect class="cls-1" x="1843.52" y="1053.48" width="87.55" height="87.55"/><rect class="cls-1" x="1931.07" y="1053.48" width="87.55" height="87.55"/><rect class="cls-1" x="2018.62" y="1053.48" width="87.55" height="87.55"/><rect class="cls-1" x="2106.16" y="1053.48" width="87.55" height="87.55"/><rect class="cls-1" x="2193.71" y="1053.48" width="87.55" height="87.55"/><rect class="cls-1" x="2281.26" y="1053.48" width="87.55" height="87.55"/><rect class="cls-1" x="2368.81" y="1053.48" width="87.55" height="87.55"/><rect class="cls-1" x="2456.36" y="1053.48" width="87.55" height="87.55"/><rect class="cls-1" x="2543.91" y="1053.48" width="87.55" height="87.55"/><rect class="cls-1" x="2631.46" y="1053.48" width="87.55" height="87.55"/><rect class="cls-1" x="2719" y="1053.48" width="87.55" height="87.55"/><rect class="cls-1" x="2806.55" y="1053.48" width="87.55" height="87.55"/><rect class="cls-1" x="5" y="1139.93" width="87.55" height="87.55"/><rect class="cls-1" x="92.55" y="1139.93" width="87.55" height="87.55"/><rect class="cls-1" x="180.1" y="1139.93" width="87.55" height="87.55"/><rect class="cls-1" x="267.65" y="1139.93" width="87.55" height="87.55"/><rect class="cls-1" x="355.19" y="1139.93" width="87.55" height="87.55"/><rect class="cls-1" x="442.74" y="1139.93" width="87.55" height="87.55"/><rect class="cls-1" x="530.29" y="1139.93" width="87.55" height="87.55"/><rect class="cls-1" x="617.84" y="1139.93" width="87.55" height="87.55"/><rect class="cls-1" x="705.39" y="1139.93" width="87.55" height="87.55"/><rect class="cls-1" x="792.94" y="1139.93" width="87.55" height="87.55"/><rect class="cls-1" x="880.49" y="1139.93" width="87.55" height="87.55"/><rect class="cls-1" x="968.03" y="1139.93" width="87.55" height="87.55"/><rect class="cls-1" x="1055.58" y="1139.93" width="87.55" height="87.55"/><rect class="cls-1" x="1143.13" y="1139.93" width="87.55" height="87.55"/><rect class="cls-1" x="1230.68" y="1139.93" width="87.55" height="87.55"/><rect class="cls-1" x="1318.23" y="1139.93" width="87.55" height="87.55"/><rect class="cls-1" x="1405.78" y="1139.93" width="87.55" height="87.55"/><rect class="cls-1" x="1493.32" y="1139.93" width="87.55" height="87.55"/><rect class="cls-1" x="1580.87" y="1139.93" width="87.55" height="87.55"/><rect class="cls-1" x="1668.42" y="1139.93" width="87.55" height="87.55"/><rect class="cls-1" x="1755.97" y="1139.93" width="87.55" height="87.55"/><rect class="cls-1" x="1843.52" y="1139.93" width="87.55" height="87.55"/><rect class="cls-1" x="1931.07" y="1139.93" width="87.55" height="87.55"/><rect class="cls-1" x="2018.62" y="1139.93" width="87.55" height="87.55"/><rect class="cls-1" x="2106.16" y="1139.93" width="87.55" height="87.55"/><rect class="cls-1" x="2193.71" y="1139.93" width="87.55" height="87.55"/><rect class="cls-1" x="2281.26" y="1139.93" width="87.55" height="87.55"/><rect class="cls-1" x="2368.81" y="1139.93" width="87.55" height="87.55"/><rect class="cls-1" x="2456.36" y="1139.93" width="87.55" height="87.55"/><rect class="cls-1" x="2543.91" y="1139.93" width="87.55" height="87.55"/><rect class="cls-1" x="2631.46" y="1139.93" width="87.55" height="87.55"/><rect class="cls-1" x="2719" y="1139.93" width="87.55" height="87.55"/><rect class="cls-1" x="2806.55" y="1139.93" width="87.55" height="87.55"/><rect class="cls-1" x="5" y="1228.59" width="87.55" height="87.55"/><rect class="cls-1" x="92.55" y="1228.59" width="87.55" height="87.55"/><rect class="cls-1" x="180.1" y="1228.59" width="87.55" height="87.55"/><rect class="cls-1" x="267.65" y="1228.59" width="87.55" height="87.55"/><rect class="cls-1" x="355.19" y="1228.59" width="87.55" height="87.55"/><rect class="cls-1" x="442.74" y="1228.59" width="87.55" height="87.55"/><rect class="cls-1" x="530.29" y="1228.59" width="87.55" height="87.55"/><rect class="cls-1" x="617.84" y="1228.59" width="87.55" height="87.55"/><rect class="cls-1" x="705.39" y="1228.59" width="87.55" height="87.55"/><rect class="cls-1" x="792.94" y="1228.59" width="87.55" height="87.55"/><rect class="cls-1" x="880.49" y="1228.59" width="87.55" height="87.55"/><rect class="cls-1" x="968.03" y="1228.59" width="87.55" height="87.55"/><rect class="cls-1" x="1055.58" y="1228.59" width="87.55" height="87.55"/><rect class="cls-1" x="1143.13" y="1228.59" width="87.55" height="87.55"/><rect class="cls-1" x="1230.68" y="1228.59" width="87.55" height="87.55"/><rect class="cls-1" x="1318.23" y="1228.59" width="87.55" height="87.55"/><rect class="cls-1" x="1405.78" y="1228.59" width="87.55" height="87.55"/><rect class="cls-1" x="1493.32" y="1228.59" width="87.55" height="87.55"/><rect class="cls-1" x="1580.87" y="1228.59" width="87.55" height="87.55"/><rect class="cls-1" x="1668.42" y="1228.59" width="87.55" height="87.55"/><rect class="cls-1" x="1755.97" y="1228.59" width="87.55" height="87.55"/><rect class="cls-1" x="1843.52" y="1228.59" width="87.55" height="87.55"/><rect class="cls-1" x="1931.07" y="1228.59" width="87.55" height="87.55"/><rect class="cls-1" x="2018.62" y="1228.59" width="87.55" height="87.55"/><rect class="cls-1" x="2106.16" y="1228.59" width="87.55" height="87.55"/><rect class="cls-1" x="2193.71" y="1228.59" width="87.55" height="87.55"/><rect class="cls-1" x="2281.26" y="1228.59" width="87.55" height="87.55"/><rect class="cls-1" x="2368.81" y="1228.59" width="87.55" height="87.55"/><rect class="cls-1" x="2456.36" y="1228.59" width="87.55" height="87.55"/><rect class="cls-1" x="2543.91" y="1228.59" width="87.55" height="87.55"/><rect class="cls-1" x="2631.46" y="1228.59" width="87.55" height="87.55"/><rect class="cls-1" x="2719" y="1228.59" width="87.55" height="87.55"/><rect class="cls-1" x="2806.55" y="1228.59" width="87.55" height="87.55"/><rect class="cls-1" x="5" y="1315.05" width="87.55" height="87.55"/><rect class="cls-1" x="92.55" y="1315.05" width="87.55" height="87.55"/><rect class="cls-1" x="180.1" y="1315.05" width="87.55" height="87.55"/><rect class="cls-1" x="267.65" y="1315.05" width="87.55" height="87.55"/><rect class="cls-1" x="355.19" y="1315.05" width="87.55" height="87.55"/><rect class="cls-1" x="442.74" y="1315.05" width="87.55" height="87.55"/><rect class="cls-1" x="530.29" y="1315.05" width="87.55" height="87.55"/><rect class="cls-1" x="617.84" y="1315.05" width="87.55" height="87.55"/><rect class="cls-1" x="705.39" y="1315.05" width="87.55" height="87.55"/><rect class="cls-1" x="792.94" y="1315.05" width="87.55" height="87.55"/><rect class="cls-1" x="880.49" y="1315.05" width="87.55" height="87.55"/><rect class="cls-1" x="968.03" y="1315.05" width="87.55" height="87.55"/><rect class="cls-1" x="1055.58" y="1315.05" width="87.55" height="87.55"/><rect class="cls-1" x="1143.13" y="1315.05" width="87.55" height="87.55"/><rect class="cls-1" x="1230.68" y="1315.05" width="87.55" height="87.55"/><rect class="cls-1" x="1318.23" y="1315.05" width="87.55" height="87.55"/><rect class="cls-1" x="1405.78" y="1315.05" width="87.55" height="87.55"/><rect class="cls-1" x="1493.32" y="1315.05" width="87.55" height="87.55"/><rect class="cls-1" x="1580.87" y="1315.05" width="87.55" height="87.55"/><rect class="cls-1" x="1668.42" y="1315.05" width="87.55" height="87.55"/><rect class="cls-1" x="1755.97" y="1315.05" width="87.55" height="87.55"/><rect class="cls-1" x="1843.52" y="1315.05" width="87.55" height="87.55"/><rect class="cls-1" x="1931.07" y="1315.05" width="87.55" height="87.55"/><rect class="cls-1" x="2018.62" y="1315.05" width="87.55" height="87.55"/><rect class="cls-1" x="2106.16" y="1315.05" width="87.55" height="87.55"/><rect class="cls-1" x="2193.71" y="1315.05" width="87.55" height="87.55"/><rect class="cls-1" x="2281.26" y="1315.05" width="87.55" height="87.55"/><rect class="cls-1" x="2368.81" y="1315.05" width="87.55" height="87.55"/><rect class="cls-1" x="2456.36" y="1315.05" width="87.55" height="87.55"/><rect class="cls-1" x="2543.91" y="1315.05" width="87.55" height="87.55"/><rect class="cls-1" x="2631.46" y="1315.05" width="87.55" height="87.55"/><rect class="cls-1" x="2719" y="1315.05" width="87.55" height="87.55"/><rect class="cls-1" x="2806.55" y="1315.05" width="87.55" height="87.55"/></g></g></svg>