<svg xmlns="http://www.w3.org/2000/svg" viewBox="0 0 69.66 69.66"><defs><style>.cls-1{fill:#ff8a60;}</style></defs><g id="Layer_2" data-name="Layer 2"><g id="assets"><path class="cls-1" d="M5,69.66a5,5,0,0,1-5-5V5A5,5,0,0,1,5,0H64.66a5,5,0,0,1,0,10H10V64.66A5,5,0,0,1,5,69.66Z"/><path class="cls-1" d="M21,69.66a5,5,0,0,1-5-5V21a5,5,0,0,1,5-5H64.66a5,5,0,0,1,0,10H26V64.66A5,5,0,0,1,21,69.66Z"/><path class="cls-1" d="M36.67,69.66a5,5,0,0,1-5-5v-28a5,5,0,0,1,5-5h28a5,5,0,0,1,0,10h-23v23A5,5,0,0,1,36.67,69.66Z"/></g></g></svg>