<svg xmlns="http://www.w3.org/2000/svg" viewBox="0 0 692.09 327.11"><defs><style>.cls-1{fill:#342f2f;stroke:#ff8a60;stroke-linecap:round;stroke-linejoin:round;stroke-width:15px;}.cls-2{fill:#ff8a60;}</style></defs><g id="Layer_2" data-name="Layer 2"><g id="assets"><rect class="cls-1" x="7.5" y="7.5" width="677.09" height="312.11"/><rect class="cls-2" x="131.85" y="48.04" width="95.41" height="231.03"/><polygon class="cls-2" points="151.63 48.04 63.71 135.96 63.71 48.04 151.63 48.04"/><polygon class="cls-2" points="345.23 279.07 211.84 48.04 350.81 48.04 367.89 77.63 414.71 158.72 345.23 279.07"/><path class="cls-2" d="M458.79,59.48,398.51,163.89l-36-54.12,29-50.29h67.21M478.61,48H385L349.09,110.2l50.11,75.39L478.61,48Z"/><polygon class="cls-2" points="501.12 48.04 634.51 279.07 495.54 279.07 478.45 249.48 431.64 168.39 501.12 48.04"/><path class="cls-2" d="M447.83,163.22l36,54.12-29,50.29H387.55l60.28-104.41m-.68-21.7L367.73,279.07h93.64l35.89-62.16-50.11-75.39Z"/></g></g></svg>