<svg xmlns="http://www.w3.org/2000/svg" viewBox="0 0 602.2 408.76"><defs><style>.cls-1,.cls-2,.cls-3,.cls-4,.cls-5,.cls-6{fill:none;stroke:#ffd09c;stroke-linecap:round;stroke-linejoin:round;}.cls-1{stroke-width:10px;}.cls-2{stroke-width:9.79px;}.cls-3{stroke-width:9.79px;}.cls-4{stroke-width:9.79px;}.cls-5{stroke-width:9.79px;}.cls-6{stroke-width:11px;}.cls-7{fill:#ffd09c;}</style></defs><g id="Layer_2" data-name="Layer 2"><g id="assets"><circle class="cls-1" cx="282.17" cy="165.18" r="141.89"/><path class="cls-1" d="M301.26,305.78s4.31,21.92,2.67,25.19-21.76,33.24-21.76,33.24c-9.84,2.72-20.19,4.9-16.38,19.07s11,15.8,16.38,12,22.31.82,28.3,1.77,39.23-9.4,36.51-19.2-12.54-20.71-28.88-14.71-35.93,1.09-35.93,1.09"/><path class="cls-1" d="M248.52,303s-2.35,22.84-4.89,27.2-26.88,40.32-26.88,40.32-21.43-1.81-27.61-4.72-26.15-3.63-24,11.62,21.07,26.16,30.15,25.79,21.43-2.16,26.88,0,16-2.91,16-11.63-5.45-14.53-21.43-21.07"/><path class="cls-1" d="M504.45,103.21c-6.35-12.06,12-21.25,13.07-28.33S516.43,46,535,33.47,583.45-.32,588.36,6.22s15.25,17.44,3.27,26.7S574.19,52,576.37,56.35,584,85.77,569.29,94s-28.34,12-32.15,15.8S515.34,123.91,504.45,103.21Z"/><line class="cls-1" x1="508.07" y1="108.72" x2="423.51" y2="152.72"/><path class="cls-1" d="M541.31,29.15c13.26-.07,42.41,16.85,32.88,29.2-6,7.7-21.68-2.75-29.8-3.2,0,0-11.09,19.95,14,27.31"/><path class="cls-1" d="M95.24,180.58c-13-13.58-36,14.71-43.59,4.36s-20.15-18.09-27.6-13.26C14.24,178,19,197.47,33.13,204S8.22,226.31,5.34,237.25c-2.73,10.35,11.44,13.62,26.15,9.26s-.94,13.83,7.63,19.62c6.72,4.54,14.17,0,20.71-25.61s8.34,19.77,20.16,18c14.35-2.18,1.09-36.52,12-41.42S120.31,206.74,95.24,180.58Z"/><path class="cls-1" d="M37.29,252.81c2.47-11.93,1.06-15.27.12-24.82"/><path class="cls-1" d="M101.48,187.76s34.84-25.49,44.18-61.37"/><line class="cls-2" x1="282.17" y1="23.29" x2="282.17" y2="73.29"/><line class="cls-3" x1="282.17" y1="257.06" x2="282.17" y2="307.06"/><line class="cls-4" x1="424.06" y1="170.21" x2="374.06" y2="170.21"/><line class="cls-5" x1="190.29" y1="170.21" x2="140.29" y2="170.21"/><path class="cls-3" d="M225,210s23.52,25.6,57.17,25.6S339.35,210,339.35,210"/><path class="cls-3" d="M291.22,165.18s2.9,9.23-4.73,18.31"/><rect class="cls-6" x="312.47" y="87.53" width="44.32" height="91.96" rx="22.16"/><path class="cls-7" d="M339.38,122.38c.1.18.22.36.32.54.59,1.06,1.28,2.09,1.86,3.17a8.35,8.35,0,0,1,1,3.43,13.13,13.13,0,0,1-.21,3.68,10.74,10.74,0,0,1-1.51,3.79.48.48,0,0,1-.65.13l0,0h0a15.45,15.45,0,0,1-2.7-2.86,18.26,18.26,0,0,1-1.75-2.91,9.15,9.15,0,0,1-.86-3.06c0-.45-.08-.91-.13-1.37-9.36,14.88-.11,52.61-.11,52.61a22.22,22.22,0,0,0,22.15-22.16V123.91C349,120.32,343.36,120.22,339.38,122.38Z"/><line class="cls-4" x1="342.62" y1="89.04" x2="346.43" y2="76.24"/><line class="cls-4" x1="353.51" y1="98.13" x2="362.5" y2="89.04"/><line class="cls-4" x1="326.63" y1="89.04" x2="320.28" y2="78.42"/><line class="cls-4" x1="314.87" y1="99.69" x2="305.02" y2="92.04"/><rect class="cls-6" x="217.67" y="87.53" width="44.32" height="91.96" rx="22.16"/><path class="cls-7" d="M244.58,122.38c.1.18.22.36.32.54.59,1.06,1.28,2.09,1.87,3.17a8.49,8.49,0,0,1,1,3.43,13.13,13.13,0,0,1-.21,3.68,10.74,10.74,0,0,1-1.51,3.79.48.48,0,0,1-.65.13l0,0h0a15.45,15.45,0,0,1-2.7-2.86,18.26,18.26,0,0,1-1.75-2.91,8.91,8.91,0,0,1-.85-3.06c-.05-.45-.09-.91-.14-1.37-9.36,14.88-.11,52.61-.11,52.61A22.23,22.23,0,0,0,262,157.33V123.91C254.17,120.32,248.56,120.22,244.58,122.38Z"/><line class="cls-4" x1="247.82" y1="89.04" x2="251.63" y2="76.24"/><line class="cls-4" x1="258.71" y1="98.13" x2="267.71" y2="89.04"/><line class="cls-4" x1="231.83" y1="89.04" x2="225.48" y2="78.42"/><line class="cls-4" x1="220.07" y1="99.69" x2="210.22" y2="92.04"/><path class="cls-3" d="M333.35,201.83s5.64,10.72,14.08,11.81"/><path class="cls-3" d="M229.22,201.83s-5.63,10.72-14.07,11.81"/></g></g></svg>